HIERARCHY
ROOT Hips
{
 OFFSET 0.000000 0.000000 0.000000
 CHANNELS 6 Xposition Yposition Zposition Yrotation Xrotation Zrotation
 JOINT Chest
 {
  OFFSET 0.000000 103.927959 -11.547555
  CHANNELS 3 Yrotation Xrotation Zrotation
  JOINT Chest2
  {
   OFFSET 0.000000 116.259650 0.000000
   CHANNELS 3 Yrotation Xrotation Zrotation
   JOINT Chest3
   {
    OFFSET 0.000000 106.135078 0.000000
    CHANNELS 3 Yrotation Xrotation Zrotation
    JOINT Chest4
    {
     OFFSET 0.000000 106.016608 0.000000
     CHANNELS 3 Yrotation Xrotation Zrotation
     JOINT Neck
     {
      OFFSET 0.000000 148.478086 0.000000
      CHANNELS 3 Yrotation Xrotation Zrotation
      JOINT Head
      {
       OFFSET 0.000000 98.684725 0.000000
       CHANNELS 3 Yrotation Xrotation Zrotation
       End Site
       {
        OFFSET 0.000000 183.657339 0.000000
       }
      }
     }
     JOINT RightCollar
     {
      OFFSET -32.301251 83.229558 0.000000
      CHANNELS 3 Yrotation Xrotation Zrotation
      JOINT RightShoulder
      {
       OFFSET -148.983121 0.000000 0.000000
       CHANNELS 3 Yrotation Xrotation Zrotation
       JOINT RightElbow
       {
        OFFSET 0.000000 -318.416921 0.000000
        CHANNELS 3 Yrotation Xrotation Zrotation
        JOINT RightWrist
        {
         OFFSET 0.000000 -260.384535 0.000000
         CHANNELS 3 Yrotation Xrotation Zrotation
         End Site
         {
          OFFSET 0.000000 -194.729091 0.000000
         }
        }
       }
      }
     }
     JOINT LeftCollar
     {
      OFFSET 32.301251 83.229558 0.000000
      CHANNELS 3 Yrotation Xrotation Zrotation
      JOINT LeftShoulder
      {
       OFFSET 148.983121 0.000000 0.000000
       CHANNELS 3 Yrotation Xrotation Zrotation
       JOINT LeftElbow
       {
        OFFSET 0.000000 -318.416921 0.000000
        CHANNELS 3 Yrotation Xrotation Zrotation
        JOINT LeftWrist
        {
         OFFSET 0.000000 -260.384535 0.000000
         CHANNELS 3 Yrotation Xrotation Zrotation
         End Site
         {
          OFFSET 0.000000 -194.729091 0.000000
         }
        }
       }
      }
     }
    }
   }
  }
 }
 JOINT RightHip
 {
  OFFSET -85.448433 0.000000 0.000000
  CHANNELS 3 Yrotation Xrotation Zrotation
  JOINT RightKnee
  {
   OFFSET 0.000000 -444.902608 0.000000
   CHANNELS 3 Yrotation Xrotation Zrotation
   JOINT RightAnkle
   {
    OFFSET 0.000000 -434.916856 0.000000
    CHANNELS 3 Yrotation Xrotation Zrotation
    JOINT RightToe
    {
     OFFSET 0.000000 -65.483541 148.093546
     CHANNELS 3 Yrotation Xrotation Zrotation
     End Site
     {
      OFFSET 0.000000 -15.533754 66.277348
     }
    }
   }
  }
 }
 JOINT LeftHip
 {
  OFFSET 85.448433 0.000000 0.000000
  CHANNELS 3 Yrotation Xrotation Zrotation
  JOINT LeftKnee
  {
   OFFSET 0.000000 -444.902608 0.000000
   CHANNELS 3 Yrotation Xrotation Zrotation
   JOINT LeftAnkle
   {
    OFFSET 0.000000 -434.916856 0.000000
    CHANNELS 3 Yrotation Xrotation Zrotation
    JOINT LeftToe
    {
     OFFSET 0.000000 -65.483541 148.093546
     CHANNELS 3 Yrotation Xrotation Zrotation
     End Site
     {
      OFFSET 0.000000 -15.533754 66.277348
     }
    }
   }
  }
 }
}
MOTION
Frames: 13
Frame Time: 0.016667
-2443.619269 949.074101 3965.209221 -150.634498 6.600788 -2.735540 0.756471 0.623602 4.569751 0.123096 -5.538072 2.039526 0.122336 0.282355 2.052078 0.248052 6.046756 1.547650 15.254907 18.293507 -4.927721 29.469888 0.564187 -13.639053 13.754463 -9.398358 9.936641 26.639454 -37.514361 -38.856388 -36.328166 -59.960505 83.215514 -3.690191 2.265677 6.864348 -4.194623 -7.087389 -3.709931 0.271930 -38.697306 44.932588 83.182100 -66.396780 -113.465741 11.591656 -3.666719 -9.098338 -6.620167 -4.245221 4.850948 1.106546 7.308250 1.099026 -16.539349 -10.380006 -0.136886 0.000000 -0.000000 0.000000 8.211489 -18.717863 13.877110 1.262901 13.242824 0.657665 -6.305267 3.632658 -15.216534 -0.152861 -5.715095 3.107626
-2440.743930 948.365056 3961.511149 -148.350179 6.690854 -2.589512 1.220699 0.451762 4.223606 0.347100 -5.611322 1.885041 0.345252 0.209005 1.920324 0.405409 5.992674 1.448089 14.807551 18.215133 -5.027421 28.700897 0.341947 -13.720219 13.854363 -9.496703 9.807567 26.239658 -37.732013 -39.246519 -36.549428 -60.180864 82.560099 -3.475826 2.440980 7.149255 -3.929057 -6.817185 -3.928293 -1.497794 -38.198974 43.379778 84.423535 -66.155352 -115.008203 10.539636 -3.907149 -9.191318 -7.238126 -4.126604 5.131111 0.327026 7.554658 1.151318 -17.379459 -10.898661 -0.280133 0.000000 0.000000 0.000000 7.510788 -19.344777 13.792125 0.046599 13.392874 0.464432 -6.422938 3.950883 -14.810660 -0.132381 -5.821788 2.659341
-2437.844143 947.641791 3957.794204 -146.012260 6.735401 -2.407111 1.679621 0.336236 3.848166 0.569371 -5.660379 1.717433 0.566414 0.159769 1.775231 0.560339 5.956578 1.338539 14.344051 18.167994 -5.118770 27.893386 0.171095 -13.772023 14.034406 -9.718076 9.668594 25.933205 -37.930682 -39.817216 -36.753148 -60.458187 81.763271 -3.229824 2.590892 7.346475 -3.721441 -6.735603 -4.061110 -3.589308 -37.766793 42.256017 84.816877 -65.882608 -115.568304 9.934435 -4.197453 -9.095611 -7.895086 -4.030299 5.397526 -0.454152 7.895460 1.159840 -18.175378 -11.445649 -0.423032 0.000000 0.000000 0.000000 6.810562 -19.946183 13.669937 -1.062948 13.524541 0.277285 -6.637224 4.376059 -14.501283 -0.118636 -6.021681 2.310058
-2434.898017 946.886329 3954.070022 -143.607761 6.694571 -2.179390 2.127163 0.306662 3.445420 0.787082 -5.672174 1.537411 0.783082 0.147717 1.617322 0.710828 5.948236 1.219432 13.864437 18.163991 -5.199888 27.045452 0.072563 -13.789824 14.385020 -10.116302 9.487200 25.682942 -38.030106 -40.587848 -36.969968 -60.825644 80.817125 -2.920304 2.684119 7.369085 -3.596146 -6.950542 -4.125538 -5.940819 -37.435813 41.593195 84.159429 -65.410570 -115.076032 10.187951 -4.559022 -8.670644 -8.598623 -3.940998 5.636289 -1.242514 8.371168 1.098027 -18.873480 -12.025308 -0.571293 -0.000000 0.000000 -0.000000 6.118642 -20.491290 13.505373 -1.975267 13.640601 0.109588 -6.997436 4.944143 -14.392773 -0.118214 -6.358950 2.166382
-2431.927443 946.116647 3950.326967 -141.151119 6.603057 -1.922581 2.569899 0.338646 3.023550 1.003104 -5.657491 1.348518 0.998093 0.162054 1.450381 0.859305 5.959540 1.093527 13.372112 18.190815 -5.265834 26.164455 0.024393 -13.769140 14.815483 -10.636778 9.262262 25.516080 -38.077609 -41.531514 -37.113636 -61.252245 79.681285 -2.574159 2.759969 7.305682 -3.534422 -7.363651 -4.146968 -8.566716 -37.214803 41.296779 82.753362 -64.922178 -113.682835 10.887671 -4.951104 -8.062251 -9.342005 -3.873639 5.858097 -2.035804 8.943157 0.995307 -19.528908 -12.630181 -0.722184 0.000000 0.000000 0.000000 5.430173 -21.008726 13.302117 -2.780088 13.740792 -0.050017 -7.455390 5.621579 -14.377343 -0.124759 -6.792012 2.117493
-2429.035081 945.417280 3946.580121 -138.680759 6.527274 -1.663003 2.984048 0.378246 2.600650 1.206455 -5.640329 1.158995 1.200487 0.178821 1.281458 0.998146 5.972495 0.966069 12.892398 18.258602 -5.318049 25.294580 0.051936 -13.716517 15.167293 -11.200160 9.079357 25.709680 -38.155236 -42.794501 -36.994218 -61.633782 78.216240 -2.262129 2.857565 7.296599 -3.584892 -7.817653 -4.089280 -11.177237 -37.197880 41.189078 81.458168 -64.676052 -112.317453 11.283885 -5.172647 -7.544706 -10.070047 -3.865688 6.078401 -2.857203 9.542651 0.906745 -20.243798 -13.210357 -0.866403 0.000000 0.000000 0.000000 4.797991 -21.551268 13.061504 -3.601688 13.797499 -0.221974 -8.000966 6.380035 -14.320421 -0.128873 -7.264302 2.029980
-2426.223311 944.812596 3942.873597 -136.175510 6.494140 -1.396497 3.345306 0.407239 2.181778 1.386252 -5.628788 0.971346 1.379452 0.189953 1.112016 1.119404 5.981042 0.838212 12.437869 18.384464 -5.365891 24.458925 0.192103 -13.649650 15.399502 -11.793264 8.955481 26.446746 -38.240428 -44.504309 -36.540293 -61.895831 76.354841 -2.059889 2.969473 7.416156 -3.755957 -8.272484 -3.940538 -13.724490 -37.469340 41.263258 80.559524 -64.856416 -111.251429 10.952592 -5.070132 -7.233356 -10.790586 -3.952356 6.300990 -3.728635 10.177691 0.850761 -21.081540 -13.765142 -0.992565 -0.000000 -0.000000 0.000000 4.215012 -22.152055 12.778014 -4.480161 13.807813 -0.429173 -8.654415 7.234337 -14.129129 -0.123837 -7.771894 1.820423
-2423.489753 944.278229 3939.163282 -133.655751 6.475644 -1.123550 3.677302 0.443829 1.760086 1.553236 -5.614605 0.782451 1.545701 0.203699 0.940090 1.230954 5.991393 0.708516 12.000030 18.549214 -5.394342 23.642159 0.403872 -13.545244 15.552431 -12.437918 8.872617 27.556925 -38.276013 -46.555773 -35.784223 -62.080419 74.134797 -1.893780 3.089879 7.590564 -4.041661 -8.777140 -3.712004 -16.260727 -37.968403 41.518314 79.715351 -65.285083 -110.165794 10.307798 -4.801978 -7.013250 -11.495815 -4.098761 6.517144 -4.627937 10.838645 0.809756 -21.980174 -14.295434 -1.106170 0.000000 0.000000 0.000000 3.692150 -22.774430 12.451614 -5.374465 13.774717 -0.650866 -9.393065 8.168465 -13.898858 -0.114404 -8.317131 1.572079
-2420.929934 943.825617 3935.331908 -131.221366 6.460211 -0.873739 4.027996 0.486275 1.330829 1.728907 -5.598367 0.590048 1.720592 0.219430 0.765530 1.348776 6.003119 0.576812 11.571319 18.706526 -5.372127 22.829584 0.593531 -13.354310 15.587663 -13.117160 8.880965 28.806707 -38.302731 -48.768124 -34.694195 -62.249100 71.578031 -1.614250 3.260954 7.742044 -4.467465 -9.309820 -3.384054 -18.654972 -38.568195 41.803831 78.788824 -65.690080 -109.048033 9.856842 -4.627392 -6.786073 -12.106845 -4.236924 6.726394 -5.509362 11.429846 0.783072 -22.852640 -14.754531 -1.224087 0.000000 0.000000 0.000000 3.307320 -23.366455 12.093866 -6.287138 13.677402 -0.843348 -10.144230 9.106780 -13.779016 -0.108679 -8.852309 1.403955
-2418.536353 943.469945 3931.258636 -128.883683 6.449773 -0.664340 4.421047 0.531164 0.886040 1.924221 -5.581689 0.390572 1.915052 0.235487 0.585879 1.480896 6.014970 0.441239 11.141030 18.839518 -5.282185 21.999199 0.725555 -13.045849 15.422230 -13.853440 9.050644 30.182415 -38.306772 -51.169841 -33.302095 -62.466460 68.735118 -1.099919 3.496645 7.878970 -5.115038 -9.877803 -2.908517 -20.814446 -39.285662 42.067461 77.751846 -65.986989 -107.932700 9.811426 -4.643545 -6.496552 -12.581443 -4.345698 6.937940 -6.377985 11.921341 0.768862 -23.658172 -15.121576 -1.361332 -0.000033 0.006311 -0.116934 3.107346 -23.927893 11.714208 -7.246085 13.505762 -0.992474 -10.906152 10.047068 -13.891596 -0.116290 -9.379874 1.418511
-2416.316512 943.196030 3927.064306 -126.631129 6.446981 -0.476948 4.832478 0.581720 0.432946 2.128212 -5.563262 0.187260 2.118180 0.253182 0.403277 1.619308 6.027891 0.303420 10.720070 18.959894 -5.144156 21.174530 0.830065 -12.655872 15.133805 -14.638017 9.314793 31.713812 -38.269797 -53.743624 -31.514323 -62.626019 65.518018 -0.473094 3.790432 8.008016 -5.909255 -10.477529 -2.330665 -22.833693 -40.114625 42.365787 76.637317 -66.257261 -106.792924 9.962471 -4.738616 -6.185417 -12.961752 -4.445886 7.144775 -7.226520 12.343891 0.767801 -24.436535 -15.416532 -1.507298 -0.000524 0.013245 -0.233831 3.044498 -24.455991 11.304918 -8.222654 13.267374 -1.114161 -11.687536 10.993157 -14.115919 -0.131014 -9.900503 1.513806
-2414.388446 942.969752 3922.994169 -124.529503 6.442793 -0.288884 5.238984 0.643757 -0.009908 2.329603 -5.540352 -0.011726 2.318719 0.275295 0.224698 1.756064 6.043984 0.168575 10.330419 19.063534 -4.986459 20.404491 0.910328 -12.242322 14.927832 -15.403484 9.520941 33.253833 -38.278238 -56.263909 -29.194707 -62.520879 61.821699 0.049459 4.162596 8.048573 -6.636854 -11.070689 -1.769269 -24.860217 -40.888496 42.714843 75.418744 -66.473204 -105.533207 10.190690 -4.849503 -5.881425 -13.295277 -4.530750 7.325696 -7.989995 12.694261 0.780882 -25.220365 -15.654446 -1.643408 0.000000 -0.000000 -0.000000 3.050507 -24.896562 10.860770 -9.134832 12.968691 -1.208708 -12.430099 11.877483 -14.235995 -0.136319 -10.362632 1.503238
-2412.849250 942.786401 3919.109066 -122.594271 6.441708 -0.093643 5.635132 0.709276 -0.437983 2.525832 -5.516404 -0.204225 2.514144 0.298407 0.052088 1.889452 6.060708 0.038213 9.975684 19.141164 -4.821889 19.700227 0.951275 -11.830931 14.873572 -16.125796 9.631732 34.693385 -38.439556 -58.660899 -26.569826 -62.038546 57.951906 0.369148 4.655012 7.908303 -7.218361 -11.646236 -1.252463 -26.999095 -41.562042 43.150156 73.984188 -66.572586 -104.008288 10.564923 -4.993486 -5.598564 -13.594752 -4.592608 7.475496 -8.637562 12.951677 0.815414 -26.049863 -15.828328 -1.768640 0.005674 -0.038516 0.920229 3.153545 -25.239931 10.356377 -10.011431 12.603779 -1.271768 -13.108960 12.664762 -14.125309 -0.119762 -10.735028 1.273767
